<svg width="18" height="17" viewBox="0 0 18 17" fill="none" xmlns="http://www.w3.org/2000/svg">
<path d="M9.00002 0.204346C13.6025 0.204346 17.3334 3.93518 17.3334 8.53768C17.3334 13.1402 13.6025 16.871 9.00002 16.871C4.39752 16.871 0.666687 13.1402 0.666687 8.53768C0.666687 3.93518 4.39752 0.204346 9.00002 0.204346ZM4.99752 10.7727L3.18502 12.5843C3.60541 13.1868 4.11645 13.7206 4.70002 14.1668L4.95419 14.3527L6.76502 12.5402C6.09236 12.1635 5.52502 11.6239 5.11502 10.971L4.99835 10.7727H4.99752ZM13.0025 10.7727C12.6258 11.4453 12.0863 12.0127 11.4334 12.4227L11.235 12.5393L13.0467 14.3527C13.6491 13.9323 14.183 13.4213 14.6292 12.8377L14.815 12.5843L13.0025 10.7727ZM9.00002 5.20435C8.11597 5.20435 7.26812 5.55554 6.643 6.18066C6.01788 6.80578 5.66669 7.65362 5.66669 8.53768C5.66669 9.42173 6.01788 10.2696 6.643 10.8947C7.26812 11.5198 8.11597 11.871 9.00002 11.871C9.88408 11.871 10.7319 11.5198 11.357 10.8947C11.9822 10.2696 12.3334 9.42173 12.3334 8.53768C12.3334 7.65362 11.9822 6.80578 11.357 6.18066C10.7319 5.55554 9.88408 5.20435 9.00002 5.20435ZM4.95419 2.72268C4.35143 3.143 3.81734 3.65404 3.37085 4.23768L3.18502 4.49185L4.99752 6.30268C5.37424 5.63002 5.91378 5.06268 6.56669 4.65268L6.76502 4.53601L4.95419 2.72268ZM13.0459 2.72268L11.235 4.53518C11.9077 4.9119 12.475 5.45144 12.885 6.10435L13.0017 6.30268L14.815 4.49185C14.3947 3.88909 13.8837 3.355 13.3 2.90851L13.0467 2.72268H13.0459Z" fill="#787676"/>
</svg>
