<svg width="16" height="19" viewBox="0 0 16 19" fill="none" xmlns="http://www.w3.org/2000/svg">
<path d="M14.7359 8.2877L15.7375 8.88853C15.7993 8.92552 15.8505 8.9779 15.886 9.04056C15.9215 9.10322 15.9402 9.17401 15.9402 9.24603C15.9402 9.31805 15.9215 9.38884 15.886 9.4515C15.8505 9.51416 15.7993 9.56654 15.7375 9.60353L8.00002 14.246L0.262521 9.60353C0.200727 9.56654 0.149576 9.51416 0.11406 9.4515C0.0785441 9.38884 0.0598755 9.31805 0.0598755 9.24603C0.0598755 9.17401 0.0785441 9.10322 0.11406 9.04056C0.149576 8.9779 0.200727 8.92552 0.262521 8.88853L1.26419 8.2877L8.00002 12.3294L14.7359 8.2877ZM14.7359 12.2044L15.7375 12.8052C15.7993 12.8422 15.8505 12.8946 15.886 12.9572C15.9215 13.0199 15.9402 13.0907 15.9402 13.1627C15.9402 13.2347 15.9215 13.3055 15.886 13.3682C15.8505 13.4308 15.7993 13.4832 15.7375 13.5202L8.42919 17.9052C8.29958 17.9831 8.15122 18.0242 8.00002 18.0242C7.84882 18.0242 7.70046 17.9831 7.57085 17.9052L0.262521 13.5202C0.200727 13.4832 0.149576 13.4308 0.11406 13.3682C0.0785441 13.3055 0.0598755 13.2347 0.0598755 13.1627C0.0598755 13.0907 0.0785441 13.0199 0.11406 12.9572C0.149576 12.8946 0.200727 12.8422 0.262521 12.8052L1.26419 12.2044L8.00002 16.246L14.7359 12.2044ZM8.42835 0.62853L15.7375 5.01353C15.7993 5.05052 15.8505 5.1029 15.886 5.16556C15.9215 5.22822 15.9402 5.29901 15.9402 5.37103C15.9402 5.44305 15.9215 5.51384 15.886 5.5765C15.8505 5.63916 15.7993 5.69154 15.7375 5.72853L8.00002 10.371L0.262521 5.72853C0.200727 5.69154 0.149576 5.63916 0.11406 5.5765C0.0785441 5.51384 0.0598755 5.44305 0.0598755 5.37103C0.0598755 5.29901 0.0785441 5.22822 0.11406 5.16556C0.149576 5.1029 0.200727 5.05052 0.262521 5.01353L7.57085 0.62853C7.70046 0.55066 7.84882 0.509521 8.00002 0.509521C8.15122 0.509521 8.29958 0.55066 8.42919 0.62853H8.42835Z" fill="#787676"/>
</svg>
