<svg width="18" height="17" viewBox="0 0 18 17" fill="none" xmlns="http://www.w3.org/2000/svg">
<path d="M16.5 15.0377H9.83335V2.53772C9.83335 1.87468 10.0967 1.23879 10.5656 0.769953C11.0344 0.301112 11.6703 0.0377197 12.3334 0.0377197H16.5C16.721 0.0377197 16.933 0.125517 17.0893 0.281797C17.2456 0.438078 17.3334 0.650039 17.3334 0.871053V14.2044C17.3334 14.4254 17.2456 14.6374 17.0893 14.7936C16.933 14.9499 16.721 15.0377 16.5 15.0377ZM8.16669 15.0377H1.50002C1.27901 15.0377 1.06704 14.9499 0.910765 14.7936C0.754484 14.6374 0.666687 14.4254 0.666687 14.2044V0.871053C0.666687 0.650039 0.754484 0.438078 0.910765 0.281797C1.06704 0.125517 1.27901 0.0377197 1.50002 0.0377197H5.66669C6.32973 0.0377197 6.96561 0.301112 7.43445 0.769953C7.9033 1.23879 8.16669 1.87468 8.16669 2.53772V15.0377ZM8.16669 15.0377H9.83335V16.7044H8.16669V15.0377Z" fill="#787676"/>
</svg>
