<svg width="35" height="31" viewBox="0 0 35 31" fill="none" xmlns="http://www.w3.org/2000/svg">
<path d="M17.5017 2.5483C21.4167 -0.9667 27.4667 -0.850033 31.2383 2.9283C35.0083 6.7083 35.1383 12.7283 31.6317 16.655L17.4983 30.8083L3.36834 16.655C-0.138328 12.7283 -0.00666136 6.6983 3.76167 2.9283C7.53667 -0.845033 13.575 -0.9717 17.5017 2.5483ZM28.8783 5.2833C26.3783 2.77997 22.345 2.6783 19.7283 5.0283L17.5033 7.02497L15.2767 5.02997C12.6517 2.67663 8.62667 2.77997 6.12001 5.28663C3.63667 7.76997 3.51167 11.745 5.80001 14.3716L17.5 26.09L29.2 14.3733C31.49 11.745 31.365 7.77497 28.8783 5.2833Z" fill="#1C82FF"/>
</svg>
