<svg width="130" height="32" viewBox="0 0 130 32" fill="none" xmlns="http://www.w3.org/2000/svg">
<path d="M-0.000488281 0H4.84795V19.1966L12.3292 11.1543H18.5531L10.2244 19.9635L19.0739 30.5523H12.6486L4.92996 20.6512H4.84795V30.5523H-0.000488281V0Z" fill="#1C82FF"/>
<path d="M20.1644 11.1543H25.0143V30.5524H20.1644V11.1543Z" fill="#1C82FF"/>
<path d="M26.348 11.1543H31.6021L35.8046 24.7328H35.8851L39.8056 11.1543H45.0583L49.2622 24.7328H49.3471L53.3884 11.1543H58.28L51.6864 30.5524H46.8769L42.273 17.2961H42.1924L38.1108 30.5524H33.0969L26.348 11.1543Z" fill="#1C82FF"/>
<path d="M71.3133 27.885H71.1924C70.5577 28.9301 69.6303 29.766 68.5251 30.2891C67.4086 30.7956 66.1945 31.051 64.9686 31.0372C64.0868 31.0385 63.2093 30.9159 62.3616 30.6732C61.5483 30.4476 60.7818 30.0782 60.0986 29.5827C59.4408 29.1009 58.8963 28.4812 58.503 27.767C58.085 26.9851 57.8758 26.1084 57.8959 25.2219C57.8959 24.1669 58.0844 23.2711 58.4613 22.5344C58.8246 21.8113 59.3423 21.1768 59.9777 20.6756C60.6418 20.1603 61.3859 19.7574 62.1804 19.4829C63.0277 19.1835 63.9002 18.9606 64.7873 18.8168C65.6919 18.6666 66.6047 18.5706 67.5208 18.5291C68.4359 18.4888 69.2991 18.4687 70.1105 18.4687H71.3233V17.9435C71.3233 16.7312 70.9056 15.82 70.0702 15.21C69.2348 14.6 68.1707 14.2969 66.8777 14.3007C65.895 14.2926 64.9202 14.4779 64.009 14.846C63.1556 15.1882 62.3747 15.6886 61.707 16.3207L59.149 13.7814C60.1985 12.6943 61.4944 11.8761 62.9271 11.396C64.3646 10.9149 65.8711 10.6719 67.387 10.6766C68.7605 10.6766 69.9192 10.8315 70.863 11.1413C71.7072 11.3997 72.5002 11.8028 73.2066 12.3326C73.7995 12.7837 74.2898 13.3554 74.6453 14.0101C74.9721 14.6147 75.2169 15.2601 75.3733 15.9293C75.5173 16.5465 75.6054 17.1753 75.6366 17.8083C75.6625 18.4154 75.6769 18.9477 75.6769 19.4053V30.5595H71.3133V27.885ZM71.0255 21.864H70.0184C69.347 21.864 68.5927 21.8909 67.7554 21.9446C66.9564 21.9918 66.1644 22.1205 65.3916 22.3287C64.7136 22.5 64.0755 22.8015 63.5126 23.2164C63.2614 23.4065 63.0601 23.6549 62.9263 23.9401C62.7924 24.2254 62.73 24.5389 62.7443 24.8536C62.7299 25.2588 62.8355 25.6592 63.0479 26.0046C63.2536 26.3185 63.5221 26.5864 63.8363 26.7916C64.1681 27.0123 64.5378 27.1698 64.9269 27.2563C65.3242 27.351 65.7312 27.3993 66.1397 27.4001C67.8086 27.4001 69.0411 27.0026 69.8372 26.2075C70.6332 25.4123 71.0303 24.328 71.0284 22.9545L71.0255 21.864Z" fill="#1C82FF"/>
<path d="M77.5903 11.1543H82.1942V14.2662H82.2748C82.7589 13.2645 83.4817 12.3969 84.3796 11.7398C85.3214 11.0262 86.6014 10.6694 88.2195 10.6694C89.5114 10.6694 90.6092 10.8848 91.5127 11.3154C92.3654 11.7082 93.1183 12.2885 93.7153 13.0131C94.2868 13.7261 94.7003 14.5524 94.9282 15.4373C95.1724 16.3739 95.2943 17.3382 95.2907 18.3061V30.5524H90.4408V20.7318C90.4408 20.1927 90.414 19.5933 90.3603 18.9334C90.3094 18.2958 90.164 17.6693 89.9287 17.0746C89.7065 16.5037 89.3372 16.0019 88.8583 15.62C88.3739 15.2287 87.7135 15.033 86.8772 15.033C86.1753 15.0116 85.4777 15.1498 84.8371 15.4373C84.3026 15.693 83.8328 16.0663 83.4631 16.5293C83.0939 16.9968 82.8255 17.5356 82.6747 18.1119C82.514 18.7158 82.4341 19.3385 82.4373 19.9635V30.5524H77.5903V11.1543Z" fill="#1C82FF"/>
<path d="M97.1898 20.8526C97.1701 19.4158 97.4524 17.991 98.0185 16.6703C98.541 15.4586 99.3041 14.3656 100.261 13.4576C101.23 12.552 102.371 11.8508 103.617 11.396C106.279 10.4273 109.197 10.4273 111.859 11.396C113.104 11.8515 114.245 12.5526 115.214 13.4576C116.171 14.3663 116.933 15.4591 117.457 16.6703C118.023 17.991 118.305 19.4158 118.286 20.8526C118.305 22.2889 118.023 23.7132 117.457 25.0335C116.936 26.2495 116.17 27.3452 115.206 28.2523C114.243 29.1595 113.104 29.8587 111.859 30.3063C109.197 31.277 106.278 31.277 103.617 30.3063C102.371 29.852 101.23 29.1513 100.261 28.2461C99.3044 27.3378 98.5413 26.245 98.0185 25.0335C97.4527 23.7132 97.1703 22.2889 97.1898 20.8526ZM102.04 20.8526C102.037 21.5971 102.167 22.3362 102.424 23.0351C102.672 23.7231 103.057 24.3539 103.555 24.8896C104.091 25.4619 104.739 25.9181 105.458 26.23C106.178 26.5418 106.954 26.7028 107.738 26.7028C108.522 26.7028 109.298 26.5418 110.017 26.23C110.737 25.9181 111.385 25.4619 111.921 24.8896C112.418 24.3519 112.803 23.7198 113.052 23.0308C113.564 21.6209 113.564 20.0757 113.052 18.6658C112.802 17.9771 112.418 17.3451 111.921 16.807C111.385 16.2347 110.737 15.7785 110.017 15.4666C109.298 15.1547 108.522 14.9938 107.738 14.9938C106.954 14.9938 106.178 15.1547 105.458 15.4666C104.739 15.7785 104.091 16.2347 103.555 16.807C103.057 17.3445 102.672 17.9767 102.424 18.6658C102.167 19.3661 102.037 20.1066 102.04 20.8526Z" fill="#1C82FF"/>
<path d="M127.249 8.48836L126.006 7.14748L124.953 6.06558L129.87 0.805668C129.934 0.737778 129.977 0.652573 129.993 0.560594C130.009 0.468616 129.998 0.3739 129.961 0.288165C129.924 0.20243 129.863 0.129438 129.785 0.07822C129.707 0.0270017 129.615 -0.000195416 129.522 -6.65345e-06H126.011H119.106C118.979 -7.22525e-06 118.857 0.0502705 118.767 0.139806C118.678 0.229342 118.627 0.350831 118.627 0.477644V4.27151C118.625 4.28394 118.625 4.29649 118.627 4.30892C118.627 4.35537 118.635 4.40143 118.65 4.44559L118.66 4.47868C118.679 4.52475 118.705 4.56786 118.736 4.60673L120.113 6.06989L118.678 7.59924L118.663 7.61938C118.625 7.66498 118.595 7.71716 118.576 7.77332C118.56 7.81955 118.551 7.86814 118.55 7.91719L118.519 10.9385V11.4017C118.518 11.4342 118.522 11.4666 118.53 11.4981C118.522 11.532 118.517 11.5668 118.517 11.6017C118.517 11.6649 118.529 11.7275 118.552 11.786C118.576 11.8446 118.611 11.8978 118.655 11.9428C118.7 11.9877 118.753 12.0234 118.811 12.0478C118.869 12.0723 118.932 12.0849 118.995 12.0851H129.509C129.572 12.0849 129.635 12.0723 129.693 12.048C129.751 12.0237 129.804 11.9881 129.848 11.9434C129.893 11.8986 129.928 11.8455 129.952 11.7872C129.976 11.7288 129.988 11.6663 129.988 11.6032C129.988 11.5354 129.973 11.4685 129.945 11.407C129.916 11.3455 129.875 11.2907 129.824 11.2464L127.249 8.48836ZM123.961 5.72604C123.919 5.77115 123.886 5.82428 123.864 5.88233C123.842 5.94039 123.832 6.00219 123.835 6.06414C123.83 6.13023 123.84 6.19651 123.863 6.2587C123.885 6.32089 123.921 6.37762 123.967 6.42525L125.311 7.80929L128.403 11.1284H126.186L121.418 6.06701L126.191 0.956733H128.421L123.961 5.72604ZM124.879 11.1284H119.484L119.511 8.11573L120.763 6.76191L124.879 11.1284ZM119.576 4.11325V0.955294H124.879L120.76 5.37068L119.576 4.11325Z" fill="url(#paint0_linear_6_8)"/>
<defs>
<linearGradient id="paint0_linear_6_8" x1="131.021" y1="9.9472" x2="117.565" y2="2.17816" gradientUnits="userSpaceOnUse">
<stop stop-color="#1C66FF"/>
<stop offset="1" stop-color="#3FA9F5"/>
</linearGradient>
</defs>
</svg>
