<svg width="50" height="50" viewBox="0 0 50 50" fill="none" xmlns="http://www.w3.org/2000/svg">
<path d="M43.0163 5.57126L27.4011 17.1689L30.2888 10.3264L43.0163 5.57126Z" fill="#E2761B" stroke="#E2761B" stroke-linecap="round" stroke-linejoin="round"/>
<path d="M6.96802 5.57126L22.4577 17.2787L19.7113 10.3264L6.96802 5.57126Z" fill="#E4761B" stroke="#E4761B" stroke-linecap="round" stroke-linejoin="round"/>
<path d="M37.3981 32.4545L33.2393 38.8261L42.1376 41.2743L44.6956 32.5957L37.3981 32.4545Z" fill="#E4761B" stroke="#E4761B" stroke-linecap="round" stroke-linejoin="round"/>
<path d="M5.32019 32.5957L7.86256 41.2743L16.7609 38.8261L12.602 32.4545L5.32019 32.5957Z" fill="#E4761B" stroke="#E4761B" stroke-linecap="round" stroke-linejoin="round"/>
<path d="M16.2587 21.6886L13.7791 25.4394L22.6146 25.8318L22.3007 16.3371L16.2587 21.6886Z" fill="#E4761B" stroke="#E4761B" stroke-linecap="round" stroke-linejoin="round"/>
<path d="M33.7257 21.6887L27.6051 16.2273L27.4011 25.8318L36.2209 25.4394L33.7257 21.6887Z" fill="#E4761B" stroke="#E4761B" stroke-linecap="round" stroke-linejoin="round"/>
<path d="M16.7609 38.8261L22.0653 36.2367L17.4828 32.6585L16.7609 38.8261Z" fill="#E4761B" stroke="#E4761B" stroke-linecap="round" stroke-linejoin="round"/>
<path d="M27.9191 36.2367L33.2392 38.8261L32.5016 32.6585L27.9191 36.2367Z" fill="#E4761B" stroke="#E4761B" stroke-linecap="round" stroke-linejoin="round"/>
<path d="M33.2392 38.8261L27.9191 36.2367L28.3428 39.705L28.2957 41.1645L33.2392 38.8261Z" fill="#D7C1B3" stroke="#D7C1B3" stroke-linecap="round" stroke-linejoin="round"/>
<path d="M16.7609 38.8261L21.7044 41.1645L21.673 39.705L22.0653 36.2367L16.7609 38.8261Z" fill="#D7C1B3" stroke="#D7C1B3" stroke-linecap="round" stroke-linejoin="round"/>
<path d="M21.7828 30.3672L17.3572 29.0647L20.4802 27.6366L21.7828 30.3672Z" fill="#233447" stroke="#233447" stroke-linecap="round" stroke-linejoin="round"/>
<path d="M28.2015 30.3672L29.5041 27.6366L32.6428 29.0647L28.2015 30.3672Z" fill="#233447" stroke="#233447" stroke-linecap="round" stroke-linejoin="round"/>
<path d="M16.7609 38.8261L17.5142 32.4545L12.6021 32.5957L16.7609 38.8261Z" fill="#CD6116" stroke="#CD6116" stroke-linecap="round" stroke-linejoin="round"/>
<path d="M32.486 32.4545L33.2393 38.8261L37.3981 32.5957L32.486 32.4545Z" fill="#CD6116" stroke="#CD6116" stroke-linecap="round" stroke-linejoin="round"/>
<path d="M36.2209 25.4394L27.4011 25.8318L28.2172 30.3672L29.5198 27.6365L32.6585 29.0647L36.2209 25.4394Z" fill="#CD6116" stroke="#CD6116" stroke-linecap="round" stroke-linejoin="round"/>
<path d="M17.3572 29.0647L20.4959 27.6365L21.7828 30.3672L22.6146 25.8318L13.7791 25.4394L17.3572 29.0647Z" fill="#CD6116" stroke="#CD6116" stroke-linecap="round" stroke-linejoin="round"/>
<path d="M13.7791 25.4394L17.4828 32.6585L17.3572 29.0647L13.7791 25.4394Z" fill="#E4751F" stroke="#E4751F" stroke-linecap="round" stroke-linejoin="round"/>
<path d="M32.6585 29.0647L32.5016 32.6585L36.221 25.4394L32.6585 29.0647Z" fill="#E4751F" stroke="#E4751F" stroke-linecap="round" stroke-linejoin="round"/>
<path d="M22.6146 25.8318L21.7828 30.3672L22.8186 35.7188L23.054 28.6723L22.6146 25.8318Z" fill="#E4751F" stroke="#E4751F" stroke-linecap="round" stroke-linejoin="round"/>
<path d="M27.4011 25.8318L26.9774 28.6566L27.1657 35.7188L28.2172 30.3672L27.4011 25.8318Z" fill="#E4751F" stroke="#E4751F" stroke-linecap="round" stroke-linejoin="round"/>
<path d="M28.2172 30.3672L27.1658 35.7188L27.9191 36.2367L32.5016 32.6585L32.6586 29.0647L28.2172 30.3672Z" fill="#F6851B" stroke="#F6851B" stroke-linecap="round" stroke-linejoin="round"/>
<path d="M17.3572 29.0647L17.4827 32.6585L22.0653 36.2367L22.8186 35.7188L21.7828 30.3672L17.3572 29.0647Z" fill="#F6851B" stroke="#F6851B" stroke-linecap="round" stroke-linejoin="round"/>
<path d="M28.2957 41.1645L28.3428 39.7049L27.9504 39.3597H22.0339L21.673 39.7049L21.7044 41.1645L16.7609 38.8261L18.4872 40.2385L21.9869 42.6711H27.9975L31.5129 40.2385L33.2392 38.8261L28.2957 41.1645Z" fill="#C0AD9E" stroke="#C0AD9E" stroke-linecap="round" stroke-linejoin="round"/>
<path d="M27.919 36.2367L27.1658 35.7188H22.8186L22.0653 36.2367L21.673 39.705L22.0339 39.3597H27.9504L28.3428 39.705L27.919 36.2367Z" fill="#161616" stroke="#161616" stroke-linecap="round" stroke-linejoin="round"/>
<path d="M43.6755 17.9222L45.0095 11.5192L43.0164 5.57126L27.9191 16.7765L33.7257 21.6886L41.9335 24.0898L43.754 21.9711L42.9693 21.4062L44.2248 20.2605L43.2518 19.5072L44.5073 18.5499L43.6755 17.9222Z" fill="#763D16" stroke="#763D16" stroke-linecap="round" stroke-linejoin="round"/>
<path d="M4.9906 11.5192L6.32456 17.9222L5.4771 18.5499L6.7326 19.5072L5.77528 20.2605L7.03078 21.4062L6.24609 21.9711L8.05087 24.0898L16.2587 21.6886L22.0653 16.7765L6.968 5.57126L4.9906 11.5192Z" fill="#763D16" stroke="#763D16" stroke-linecap="round" stroke-linejoin="round"/>
<path d="M41.9335 24.0898L33.7257 21.6886L36.221 25.4394L32.5016 32.6585L37.398 32.5957H44.6956L41.9335 24.0898Z" fill="#F6851B" stroke="#F6851B" stroke-linecap="round" stroke-linejoin="round"/>
<path d="M16.2587 21.6886L8.05089 24.0898L5.32019 32.5957H12.602L17.4828 32.6585L13.7791 25.4394L16.2587 21.6886Z" fill="#F6851B" stroke="#F6851B" stroke-linecap="round" stroke-linejoin="round"/>
<path d="M27.4011 25.8318L27.919 16.7765L30.3044 10.3264H19.7112L22.0652 16.7765L22.6145 25.8318L22.8028 28.688L22.8185 35.7188H27.1657L27.1971 28.688L27.4011 25.8318Z" fill="#F6851B" stroke="#F6851B" stroke-linecap="round" stroke-linejoin="round"/>
</svg>
