<svg width="18" height="19" viewBox="0 0 18 19" fill="none" xmlns="http://www.w3.org/2000/svg">
<path d="M0 9.5C0 10.1213 0.50368 10.625 1.125 10.625H7.6875C7.79105 10.625 7.875 10.7089 7.875 10.8125V17.375C7.875 17.9963 8.37868 18.5 9 18.5C9.62132 18.5 10.125 17.9963 10.125 17.375V10.8125C10.125 10.7089 10.2089 10.625 10.3125 10.625H16.875C17.4963 10.625 18 10.1213 18 9.5C18 8.87868 17.4963 8.375 16.875 8.375H10.3125C10.2089 8.375 10.125 8.29105 10.125 8.1875V1.625C10.125 1.00368 9.62132 0.5 9 0.5C8.37868 0.5 7.875 1.00368 7.875 1.625V8.1875C7.875 8.29105 7.79105 8.375 7.6875 8.375H1.125C0.50368 8.375 0 8.87868 0 9.5Z" fill="#1C82FF"/>
</svg>
