<svg width="25" height="25" viewBox="0 0 25 25" fill="none" xmlns="http://www.w3.org/2000/svg">
<path d="M18.531 16.6547L22.814 20.9367L21.399 22.3517L17.117 18.0687C15.5237 19.3459 13.542 20.0406 11.5 20.0377C6.532 20.0377 2.5 16.0057 2.5 11.0377C2.5 6.06973 6.532 2.03773 11.5 2.03773C16.468 2.03773 20.5 6.06973 20.5 11.0377C20.5029 13.0797 19.8082 15.0615 18.531 16.6547ZM16.525 15.9127C17.7941 14.6076 18.5029 12.8582 18.5 11.0377C18.5 7.16973 15.367 4.03773 11.5 4.03773C7.632 4.03773 4.5 7.16973 4.5 11.0377C4.5 14.9047 7.632 18.0377 11.5 18.0377C13.3204 18.0406 15.0699 17.3318 16.375 16.0627L16.525 15.9127V15.9127Z" fill="#787676"/>
</svg>
