<svg width="50" height="50" viewBox="0 0 50 50" fill="none" xmlns="http://www.w3.org/2000/svg">
<path d="M50 25C50 11.1929 38.8071 0 25 0C11.1929 0 0 11.1929 0 25C0 38.8071 11.1929 50 25 50C38.8071 50 50 38.8071 50 25Z" fill="url(#paint0_radial_8_22)"/>
<path d="M16.5244 18.0206C21.2054 13.4376 28.7947 13.4376 33.4757 18.0206L34.039 18.5722C34.2731 18.8014 34.2731 19.1729 34.039 19.402L32.1119 21.2889C31.9949 21.4034 31.8051 21.4034 31.6881 21.2889L30.9129 20.5298C27.6473 17.3326 22.3528 17.3326 19.0873 20.5298L18.257 21.3427C18.14 21.4573 17.9503 21.4573 17.8332 21.3427L15.9061 19.4559C15.672 19.2267 15.672 18.8552 15.9061 18.626L16.5244 18.0206ZM37.4612 21.9228L39.1764 23.6021C39.4104 23.8312 39.4104 24.2028 39.1764 24.4319L31.4426 32.0041C31.2085 32.2332 30.8291 32.2332 30.595 32.0041C30.595 32.0041 30.595 32.0041 30.595 32.0041L25.106 26.6299C25.0475 26.5726 24.9527 26.5726 24.8941 26.6299C24.8941 26.6299 24.8941 26.6299 24.8941 26.6299L19.4053 32.0041C19.1712 32.2332 18.7918 32.2332 18.5577 32.0041C18.5577 32.0041 18.5577 32.0041 18.5577 32.0041L10.8237 24.4318C10.5897 24.2027 10.5897 23.8311 10.8237 23.602L12.5389 21.9227C12.7729 21.6935 13.1524 21.6935 13.3865 21.9227L18.8755 27.2969C18.934 27.3542 19.0289 27.3542 19.0874 27.2969C19.0874 27.2969 19.0874 27.2969 19.0874 27.2969L24.5762 21.9227C24.8102 21.6935 25.1897 21.6935 25.4237 21.9227C25.4237 21.9227 25.4237 21.9227 25.4237 21.9227L30.9128 27.2969C30.9713 27.3542 31.0662 27.3542 31.1247 27.2969L36.6136 21.9228C36.8477 21.6936 37.2271 21.6936 37.4612 21.9228Z" fill="white"/>
<defs>
<radialGradient id="paint0_radial_8_22" cx="0" cy="0" r="1" gradientUnits="userSpaceOnUse" gradientTransform="translate(0 25) scale(50)">
<stop stop-color="#5D9DF6"/>
<stop offset="1" stop-color="#006FFF"/>
</radialGradient>
</defs>
</svg>
